<?xml version="1.0"?>
<svg xmlns="http://www.w3.org/2000/svg" xmlns:xlink="http://www.w3.org/1999/xlink" version="1.1" id="Capa_1" x="0px" y="0px" viewBox="0 0 490.667 490.667" style="enable-background:new 0 0 490.667 490.667;" xml:space="preserve" width="512px" height="512px" class=""><g><g>
	<path d="M170.557,490.667c-5.891,0-10.667-4.776-10.667-10.667V53.333c0-5.891,4.776-10.667,10.667-10.667   c5.891,0,10.667,4.776,10.667,10.667V480C181.224,485.891,176.448,490.667,170.557,490.667z" data-original="#F44336" class="active-path" data-old_color="#6e7cc7" fill="#6e7cc7"/>
	<path d="M319.89,448c-5.891,0-10.667-4.776-10.667-10.667V10.667C309.224,4.776,313.999,0,319.89,0   s10.667,4.776,10.667,10.667v426.667C330.557,443.224,325.781,448,319.89,448z" data-original="#F44336" class="active-path" data-old_color="#6e7cc7" fill="#6e7cc7"/>
	<path d="M42.557,405.333c-5.891-0.004-10.664-4.782-10.66-10.673c0.003-4.463,2.783-8.452,6.969-9.999   L444.2,235.328c5.483-2.154,11.674,0.544,13.828,6.027c2.154,5.483-0.544,11.674-6.027,13.829c-0.139,0.055-0.279,0.106-0.42,0.155   L46.248,404.672C45.068,405.115,43.817,405.339,42.557,405.333z" data-original="#F44336" class="active-path" data-old_color="#6e7cc7" fill="#6e7cc7"/>
	<path d="M42.557,256c-5.891-0.004-10.664-4.782-10.66-10.673c0.003-4.463,2.783-8.452,6.969-9.999   L444.2,85.995c5.483-2.154,11.674,0.545,13.828,6.028c2.154,5.483-0.545,11.674-6.028,13.828c-0.139,0.054-0.279,0.106-0.419,0.155   L46.248,255.339C45.068,255.782,43.817,256.006,42.557,256z" data-original="#F44336" class="active-path" data-old_color="#6e7cc7" fill="#6e7cc7"/>
</g></g> </svg>
